<svg id="Layer_1" data-name="Layer 1" xmlns="http://www.w3.org/2000/svg" xmlns:xlink="http://www.w3.org/1999/xlink" viewBox="0 0 1080 1080"><defs><style>.cls-1,.cls-20,.cls-21,.cls-3,.cls-4,.cls-5,.cls-8{fill:none;}.cls-2{fill:#131834;}.cls-20,.cls-21,.cls-3{stroke:#000;}.cls-20,.cls-21,.cls-3,.cls-4,.cls-5,.cls-8{stroke-miterlimit:10;}.cls-3{stroke-width:3.22px;}.cls-4,.cls-5{stroke:#131834;}.cls-20,.cls-4{stroke-linecap:round;}.cls-4{stroke-width:12.89px;}.cls-20,.cls-21,.cls-5{stroke-width:1.61px;}.cls-6{fill:#c4c1b1;}.cls-7{fill:#de9983;}.cls-8{stroke:#141740;stroke-width:9.67px;}.cls-9{fill:#466680;}.cls-10{fill:#517694;}.cls-11{fill:#f0ecd8;}.cls-12{fill:#bf7862;}.cls-13{clip-path:url(#clip-path);}.cls-14{fill:#fff;}.cls-15{clip-path:url(#clip-path-2);}.cls-16{fill:#ffc53d;}.cls-17{fill:#503444;}.cls-18{fill:#6ba7b3;}.cls-19{fill:#181d3d;}</style><clipPath id="clip-path"><path class="cls-1" d="M745.84,343.13c-.08-.39-.11-.79-.16-1.19,2.6-9.36,16-9.21,23.55-13.15a16.24,16.24,0,0,0,3.94-2.91c.15-.15.3-.3.44-.46a17.64,17.64,0,0,0,4.37-9.51c2.3-15.08-5.49-28.67-12.18-41.92a5,5,0,0,1,.79-1c1.7-1.62,4.33-1.58,6.67-1.6a41.93,41.93,0,0,0,24.13-8,71.88,71.88,0,0,0,9.37-8.24c1.66-1.7,4.72-7.63,7.27-7.84a1.27,1.27,0,0,1,.63.2c3,12,3.24,23.23,10.47,34a38.66,38.66,0,0,0,9.81,10.35,14.33,14.33,0,0,0,7.84,3.91,17.23,17.23,0,0,0,2.61.24c.35.05.69.14,1.05.18a1.88,1.88,0,0,0,1.08-.22c5.43-.24,11-1.52,15.23,1.67a14.41,14.41,0,0,1,4.15,6.06c7.09,16.86,2.11,38.82-6.85,54-6.82,11.56-18.8,22.25-31.84,25.88-12.41,3.45-25.35.53-37.16-3.76-5.18-1.88-10.09-3.75-14.82-5.92C762,367.35,749.74,360.07,746,344,746,343.68,745.89,343.4,745.84,343.13Z"/></clipPath><clipPath id="clip-path-2"><path class="cls-1" d="M808.42,730a455.3,455.3,0,0,0,64.33-17.29c48.81-17,88.14-68.31,103.7-116.21,16.34-50.32,22.29-114.07,13.59-166.12-5.6-33.53-24.79-67.68-57-78.52-23.18-7.81-48.68-2.27-71.77,5.8-31.12,10.88-48.77,26.16-62.36,55.79-14.57,31.75-25.27,65.36-43.5,95.36a224.26,224.26,0,0,1-111.92,92.71c-30.36,11.39-89.66,19.51-77.89,64.27,12.82,48.71,64.17,65.43,109.35,70.09A459.38,459.38,0,0,0,808.42,730Z"/></clipPath></defs><title>landing</title><path class="cls-2" d="M297.11,229.87c-.34,3.33-.67,6.65-1,10l14-2c-5.2-3.73-8.72-12.06-11.4-18.86C298.27,222.58,297.48,226.17,297.11,229.87Z"/><line class="cls-3" x1="964.07" y1="922.59" x2="964.07" y2="469.51"/><line class="cls-3" x1="345.03" y1="922.59" x2="345.03" y2="469.51"/><line class="cls-4" x1="99.56" y1="920.36" x2="265.43" y2="920.36"/><path class="cls-5" d="M735.77,404.39c.83-11.41-1.19-17.06.27-23.94"/><ellipse class="cls-6" cx="412.54" cy="323.61" rx="37.6" ry="42.93"/><path class="cls-7" d="M603.14,885.08c1.59-6.06,2.65-12.32,3.77-18.31,2.8-14.93,5.6-29.88,6.89-45,.64-7.53.87-15.36-1.94-22.38s-9.38-13-16.94-13c-10.89.1-19.23,9.79-23.21,18.94-3.12,7.18-4.54,15-5.69,22.7-2.75,18.63-4,37.44-5.36,56.22-.33,4.82-.57,10,2.06,14.09,2.25,3.46,6.21,5.42,10.18,6.55,8.37,2.39,21,2.29,25.31-6.33A68.43,68.43,0,0,0,603.14,885.08Z"/><path class="cls-2" d="M782.88,921.34c5.72-4.4,6.12-8.81,6.34-13.21l1.07-13.22,1-13.22.78-13.22c.93-17.63,1.1-35.25,1-52.88s-.54-35.25-1.54-52.88q-.76-13.22-2-26.43c-.84-8.82-1.81-17.63-3.24-26.44h24.44c-1.43,8.81-2.4,17.62-3.24,26.44s-1.48,17.62-2,26.43c-1,17.63-1.45,35.26-1.54,52.88s0,35.25,1,52.88l.78,13.22,1,13.22,1.07,13.22c.22,4.4.62,8.81,6.34,13.21Z"/><line class="cls-4" x1="711.83" y1="921.13" x2="882.76" y2="921.13"/><path class="cls-7" d="M531.3,879.06c1.59-6.07,2.65-12.32,3.77-18.32,2.8-14.92,5.59-29.87,6.89-45,.64-7.53.87-15.35-1.94-22.37s-9.38-13-16.94-13c-10.89.1-19.23,9.78-23.22,18.94-3.12,7.17-4.53,15-5.68,22.7-2.75,18.63-4.06,37.43-5.36,56.22-.33,4.82-.57,10,2.06,14.09,2.25,3.46,6.21,5.42,10.18,6.55,8.37,2.39,21,2.28,25.31-6.33A68.66,68.66,0,0,0,531.3,879.06Z"/><path class="cls-2" d="M532.16,902.14c-1.4,3.4-3.57,6.39-6.95,7.88a15,15,0,0,1-5.54.91c-16.74.61-33.48.23-50.22,0-19.51-.31-38.89.9-58.34-1.36-.23-5.67,3.61-10.88,8.4-13.94s10.43-4.41,15.94-5.81q15-3.84,29.75-8.78c8.61-2.88,15.47-4.36,20-12.68.41-.75,4.07-9.89,2.27-10.05l45.65,4.08a2.19,2.19,0,0,1,1.29.39,2.23,2.23,0,0,1,.54,1.54,144.2,144.2,0,0,1-.63,28.78A36.28,36.28,0,0,1,532.16,902.14Z"/><path class="cls-8" d="M858.62,467.12c-59.29-12.86-126.16-23.38-179.51.59-34.75,15.62-58.2,44.7-64.78,75.64s2.88,63.33,22.88,90.52"/><path class="cls-2" d="M808.42,730a455.3,455.3,0,0,0,64.33-17.29c48.81-17,88.14-68.31,103.7-116.21,16.34-50.32,22.29-114.07,13.59-166.12-5.6-33.53-24.79-67.68-57-78.52-23.18-7.81-48.68-2.27-71.77,5.8-31.12,10.88-48.77,26.16-62.36,55.79-14.57,31.75-25.27,65.36-43.5,95.36a224.26,224.26,0,0,1-111.92,92.71c-30.36,11.39-89.66,19.51-77.89,64.27,12.82,48.71,64.17,65.43,109.35,70.09A459.38,459.38,0,0,0,808.42,730Z"/><path class="cls-2" d="M616.61,653.13c-17.7,4.08-35.86,6-53.81,8.59-9.45,1.4-28.78,6.77-37.69.17-11.28-8.35,7.19-13.23,15.55-17.91,14.39-8,29-15.71,43.5-23.53,13.4-7.24,30.61-22.65,44.28-7.74,8.79,9.59,9.8,24.89,10.8,37.19A118.36,118.36,0,0,0,616.61,653.13Z"/><path class="cls-9" d="M808.25,560.33c-3.61-.83-7-1.57-10-2.32-30.42-7.86-61.82-11.27-93.14-12.93-35.69-1.9-72.28-1.44-106,10.32-55.58,19.37-80.1,66.71-94.89,120.27-14.88,53.87-25.41,108.85-33.66,164.13,23.86,6.37,47.51,13.45,71.15,20.6,2.07-5.31,3.29-11.38,4.67-15.21,4.4-12.24,8.48-24.58,12.5-36.94,7.83-24.09,15.35-48.3,24.28-72,8.84-23.47,19.22-46.71,34.83-66.33,11.15-14,24.48-26,36.66-39.08,11.75-12.57,30.05-13.42,46.39-15.92,42.92-6.56,87.11-7.69,128.52-21.92,10.54-3.63,14.43-12.72,5.77-21.41C829.33,565.55,818.11,562.59,808.25,560.33Z"/><path class="cls-2" d="M604,908.16c-1.4,3.4-3.57,6.39-7,7.88a9.36,9.36,0,0,1-2.6.7c-13.4,1.88-27,1.46-40.51.64-23.8-1.45-47.35.92-71-1.82-.22-5.68,3.61-10.89,8.4-13.95s10.43-4.41,15.94-5.81Q522.32,892,537,887c8.61-2.89,15.47-4.37,20-12.69a38.57,38.57,0,0,0,2.73-8.51,1.47,1.47,0,0,1,1.56-1.36l43.63,3.9a1.65,1.65,0,0,1,1.83,1.93,144.2,144.2,0,0,1-.63,28.78A35.75,35.75,0,0,1,604,908.16Z"/><path class="cls-10" d="M902.88,589.33c-8.18-25.84-45.22-31.76-68.09-29.93-47.58,3.82-95.3,5-142.62,8.85-38.55,3.16-80.5,11.49-107,42.23-23.27,27-28.65,64.66-31.95,100.14-2.51,26.87-.69,87.54,1,133.29,12.1,1.22,24.23,2.2,36.46,2.67a138.22,138.22,0,0,1,20.89,2c1.87-6.87,3.68-13.42,5.6-19.15,4-12.09,42.45-146.66,41.28-146.85a500.14,500.14,0,0,0,118.32,4.57c27.86-2.24,56.22-7.05,80.53-20.85C880.84,653,912.35,619.22,902.88,589.33Z"/><path class="cls-11" d="M915.2,579.54a23.49,23.49,0,0,1-3.65,7.39c-4.35,5.26-14.59,3.43-21,3.53-18.27.3-36.86-.79-54.25-6.86-10.82-3.77-20.88-9.37-31.22-14.31a279.43,279.43,0,0,0-34.64-13.79c-9-2.92-24.22-8.06-35-8.07,1.43-6.9,3.89-13.16,5.33-20.06,3.85-18.53,2.83-38.92,2.86-57.88,0-21.06-2-42.17-8.05-62.41-7.57-25.19-22.92-61.6-6.32-86.49,15.6-23.36,62.27-24.77,86.8-26.94,6.62-.59,13.33-1.17,19.89,0,8.08,1.38,15.5,5.29,22.53,9.51,37.5,22.49,42,58.76,53.33,97.79,5.64,19.5,14.48,38,20.13,57.46,10.37,35.73-.72,71.89-12.45,105.77C918.08,568.15,916.94,574.31,915.2,579.54Z"/><path class="cls-12" d="M816.18,256.13c.28,3.51-7.06,11.52-9.3,14a33,33,0,0,1-12.71,9.08c-13,5.14-26.68,5.61-36.89-5.13-4.85-5.1-8.15-11.47-10.91-17.94-4.2-9.86-10.07-37.05-7.41-47.43,2.42-9.42,12.52-1.21,21.73-4.37,8-2.76,14.09-5.22,22.65-3.73,7.61,1.32,14.95,5.1,19.74,11.28q1.92,2.5,3.52,5a117.3,117.3,0,0,1,6.55,16.56c1.4,4.76,1.88,9.58,2.64,14.4C815.84,250.67,816,253.41,816.18,256.13Z"/><path class="cls-12" d="M821.6,318.79c-12,8.4-27.92,11.27-42.3,10.77a75.67,75.67,0,0,1-9.63-1c7.44-7.36,9.85-13,8.3-23.88a62.77,62.77,0,0,0-5-16.15c-.82-1.86-7.9-13.29-7.17-14.58a4.74,4.74,0,0,1,.79-1c1.7-1.62,4.33-1.58,6.67-1.6a41.93,41.93,0,0,0,24.13-8,71.88,71.88,0,0,0,9.37-8.24c1.66-1.7,4.72-7.63,7.27-7.84a1.27,1.27,0,0,1,.63.2c3,12,3.24,23.23,10.47,34a38.66,38.66,0,0,0,9.81,10.35,14.28,14.28,0,0,0,7.63,3.86A70.37,70.37,0,0,1,821.6,318.79Z"/><path class="cls-2" d="M819.69,257.32c-2.13,3.19-4.61,4.51-6.41-2-2.17-7.89-5.72-17.34-4.59-25.65a13,13,0,0,0,.25-3.16,3,3,0,0,0-1.7-2.51c-1.6-.58-3.22.92-3.9,2.48s-.92,3.37-2.07,4.62a4,4,0,0,1-2.11,1.21c-2.87.64-5.56-2.07-6.23-4.93s.06-5.85.35-8.77c.22-2.28.25-5.45-1.32-7.33s-4.85-1.57-7.29-1.2c-5.82.89-11,4.05-16.17,6.75-9.88,5.21-20.77,9.13-31.94,8.86-3.06-.08-6.78-1-7.55-4a6.55,6.55,0,0,1,.44-3.82c2.69-7.47,9.38-12.67,16-17.1a46.72,46.72,0,0,1-16.55.07,3.08,3.08,0,0,1-1.93-.84c-1.13-1.32.38-3.24,1.81-4.23a56.1,56.1,0,0,1,29.72-10,30.2,30.2,0,0,1-7.15-2.44,2.54,2.54,0,0,1-1.1-.83c-.66-1.05.36-2.34,1.39-3a25,25,0,0,1,8.42-3.23,108.34,108.34,0,0,1,26.61-2.84q1.05,0,2.1.06c13.69.6,26.74,5.32,33.92,17.69,6.37,11,7.48,24.79,6.14,37.19a80.81,80.81,0,0,1-5.36,21.31A46.6,46.6,0,0,1,819.69,257.32Z"/><path class="cls-12" d="M820,231.35c-1.67-5-6.66-9.73-12.26-8.78a7.14,7.14,0,0,0-5.63,4.63,10.06,10.06,0,0,0,.3,5.77,31.42,31.42,0,0,0,1.24,4.61c.75,1.77,1.6,3.5,2.31,5.29a50.64,50.64,0,0,1,1.36,5.39A11.68,11.68,0,0,0,814.1,247,13.15,13.15,0,0,0,820,231.35Z"/><path class="cls-11" d="M736.49,312.33c-28.34,14.9-52.5,36.69-75.13,59.05-11.21,11.08-23.92,20.48-35.73,30.89-12.64,11.13-25.48,25.06-23.78,43.27.84,9,7.06,18,16,19.43,3.71.6,7.49-.11,11.23-.51,10.56-1.11,20.33.87,29.3-5.9a175.52,175.52,0,0,1,25.08-15.73c4.93-2.57,10-4.95,14.29-8.52,3.1-2.59,5.69-5.75,8.59-8.56,9-8.75,20.94-14.12,29.67-23.16,7.38-7.65,15.74-14.11,22.49-22.41a107.52,107.52,0,0,0,16-26.91c1.12-2.75,2.15-5.64,2-8.6a21.52,21.52,0,0,0-1.94-6.71,15.36,15.36,0,0,0-2.46-4.52c-.88-1-2-1.75-2.85-2.77-2.28-2.71-2.22-6.69-1.44-10.15s2.17-6.84,2.16-10.39C769.85,292.61,743.43,308.68,736.49,312.33Z"/><path class="cls-12" d="M756.05,470.74q9,.22,18.05.52c14.5.46,31.58,4.49,45.69-.26a2.33,2.33,0,0,0,1.49-1,2.5,2.5,0,0,0-.17-1.85c-6.51-17.2-24.9-28.76-42.74-26.87-6.66.7-13.13,3.76-19.79,4-5.8.23-12.48-.74-18.29-1.42-14.81-1.74-29.16-6.16-43.78-9a207,207,0,0,0-38.07-3.75c-10.32-.06-20.85.7-30.45,4.62-13.41,5.48-32.8,27.34-8.55,33.18,8.89,2.14,18,1,27.07,1.35,19.2.84,38.43.18,57.66,0C721.46,470.09,738.76,470.32,756.05,470.74Z"/><path class="cls-2" d="M811.13,241.52a6.22,6.22,0,0,0-5.82-11"/><g class="cls-13"><path class="cls-2" d="M793,277.87a9,9,0,0,1-1.16.51c-7.4,3-15.54,4.91-23.33,3.77-2,.83-1.31,2.43-.33,5.31q2.07,6.06,3.72,12.25l21.58-22Z"/></g><path class="cls-11" d="M905.73,329.06c7.15,8.28,15.34,19.25,18.69,29.72,4.36,13.68,5.63,28.12,7.52,42.28q2.29,17.25,5.8,34.3c2.09,10.22,5.63,17.48,9.52,26.77,8.8,21,15.48,45.39,13.22,68.31a21.29,21.29,0,0,1-2.24,8.59c-2.31,4.07-6.69,6.44-10.89,8.51-8,4-16.32,7.68-25.17,9s-18.41.09-25.66-5.15c-5.73-4.14-9.55-10.35-13.22-16.39-9.44-15.52-19.59-27.91-23-46q-3.52-18.88-7.06-37.79c-9.62-51.46-19.24-104.55-8.36-155.76.91-4.24,38.46,14.08,41.65,16.3A104.2,104.2,0,0,1,905.73,329.06Z"/><path class="cls-5" d="M864.46,395c4.89,18.57-.64,38.17-.16,57.37.38,15,.15,31,4,45.59,2.86,10.8,4.81,24.58,13.58,32.92"/><path class="cls-12" d="M901.18,508.2c-3.62,2.75-7.13,5.71-10.68,8.45-14.19,10.92-30.39,18.81-46.87,25.62-7.75,3.21-15.69,5.79-23.5,8.58-8.3,3-15.2,7.44-24.34,7.83-8.25.35-16.42-1.14-24.58-2.07a86.38,86.38,0,0,0-12.45-.69,52,52,0,0,0-6.35.56c-1.7.25-3.06,1-4.76,1.43a24.66,24.66,0,0,1-3.76.29,4.66,4.66,0,0,0-3.35,1.48c-2.68,3.45,3.77,4.71,5.74,4.61,3.81-.19,7.7-1,11.42.07C749,567.91,740.4,571.82,732,576c-5.87,2.89-12.6,7.5-11.89,14,.88,8.08,11.6,10.62,18.14,11A79.65,79.65,0,0,0,767,597.65c5.64-1.75,11.09-4.13,16.86-5.4,6.11-1.35,12.41-1.41,18.66-1.65,22.9-.91,45.24-4.3,67.63-8.76,25.09-5,53-12,72.68-29.42,6.24-5.52,11.32-12.73,12.78-20.94,1.39-7.8-.62-16-4.49-22.87-3.12-5.56-7.8-10.69-14-12.27C925.25,493.3,910.29,501.25,901.18,508.2Z"/><path class="cls-14" d="M769.9,258.64a9.52,9.52,0,0,1-7.18,6.18,8.63,8.63,0,0,1-8.21-4"/><path class="cls-8" d="M984.77,559.14c-59.28-13.46-126.15-24.48-179.51.62-34.74,16.35-58.19,46.79-64.77,79.19s.09,60.77,20.08,89.23"/><g class="cls-15"><path class="cls-16" d="M651.24,745.22c9.29-2.34,18.56-4.72,27.78-7.34a355.45,355.45,0,0,0,58.55-22c36.06-17.55,71.29-37.72,101.93-63.8,28.44-24.2,54.07-52,74.34-83.45,9.84-15.26,17.77-31.34,25.56-47.7,7.35-15.44,14.81-30.83,21.52-46.57,11.73-27.57,23.42-58.54,22.29-89.16.09-.31.19-.6.29-.93,20.92,63.65,26.89,133.27,9.46,198S933.28,706,873.9,737.07c-41.51,21.71-89,29.07-135.77,32-23.32,1.48-83.44,8.54-94.34-20.24,1.6-.71,3.24-1.55,4.92-2.39Z"/></g><path class="cls-5" d="M659.92,685.73c1.62-12.28-.78-23,.84-35.24"/><path d="M590.33,349.44l-29.39,34.29a5.48,5.48,0,0,0,.25,7.42l4.2,4.28a5.49,5.49,0,0,0,7.67.16l33.19-31.11a5.49,5.49,0,0,0,0-8l-8-7.47A5.49,5.49,0,0,0,590.33,349.44Z"/><path d="M623.77,307.05a3.25,3.25,0,0,1,4.11-.05c4.25,3.38,13.09,11.95,17.21,16a3.5,3.5,0,0,1,.33,4.62c-6,7.76-24.73,32-35.66,43a3.24,3.24,0,0,1-4.33.24,173.17,173.17,0,0,1-22.11-21.81,3.27,3.27,0,0,1,.11-4.37A463.47,463.47,0,0,1,623.77,307.05Z"/><line class="cls-3" x1="593.41" y1="412.85" x2="584.61" y2="463.42"/><path d="M586,387.56h12.11a2.5,2.5,0,0,1,2.5,2.5v30.86a0,0,0,0,1,0,0H583.5a0,0,0,0,1,0,0V390.06A2.5,2.5,0,0,1,586,387.56Z"/><rect x="581.58" y="411.17" width="20.95" height="11.48" rx="0.85"/><polyline class="cls-3" points="541.41 463.39 593.41 416.26 646.71 463.39"/><path d="M547.26,464a5.42,5.42,0,1,1-5.41-5.42A5.41,5.41,0,0,1,547.26,464Z"/><circle cx="645.41" cy="464.04" r="5.42"/><circle cx="584.61" cy="463.42" r="5.42"/><path class="cls-17" d="M597.59,385.93c.39,1,.75,2.05,1.09,3.08a15.2,15.2,0,0,1,1,5c-.1,5.79-5.09,6.74-9.65,5.11a60.45,60.45,0,0,1-8.43-3.75c-4.4-2.37-8.85-5.83-9.65-10.76-1.15-7.1,10.65-24.77,17.56-14.41A78.91,78.91,0,0,1,597.59,385.93Z"/><path class="cls-18" d="M645.09,323c-4.12-4-13-12.61-17.21-16a3.25,3.25,0,0,0-4.11.05q-14.89,12.39-28.41,25.56a159.77,159.77,0,0,1,26.1,25c9.56-11.32,19.83-24.58,24-30A3.5,3.5,0,0,0,645.09,323Z"/><path class="cls-16" d="M618.6,352c-2.76-2.8-5.59-5.52-8.45-8.21s-5.6-5.21-8.45-7.75c-1.22-1.1-3-3.72-4.91-5a31.23,31.23,0,0,1-3.56,2.92,31.41,31.41,0,0,0,5.11,5q4.41,3.9,8.71,7.93c2.8,2.61,5.55,5.27,8.3,7.93,1.24,1.2,3.27,4.67,5.38,5.7.78-1.05,1.64-2,2.45-3.05A28.82,28.82,0,0,0,618.6,352Z"/><circle cx="592.69" cy="393.04" r="3.9"/><path d="M419.13,351.71,452.61,382a5.49,5.49,0,0,1,.68,7.39l-3.63,4.77a5.48,5.48,0,0,1-7.59,1.12l-36.84-26.68a5.49,5.49,0,0,1-1-7.95l7-8.42A5.48,5.48,0,0,1,419.13,351.71Z"/><path d="M380.63,313.86a3.26,3.26,0,0,0-4.08.46c-3.79,3.9-11.48,13.51-15.06,18a3.5,3.5,0,0,0,.25,4.63c6.89,6.95,28.55,28.61,40.78,38.19a3.23,3.23,0,0,0,4.33-.3A173.51,173.51,0,0,0,426,350.46a3.28,3.28,0,0,0-.65-4.33A464.37,464.37,0,0,0,380.63,313.86Z"/><path class="cls-18" d="M361.49,332.35c3.58-4.52,11.27-14.14,15.06-18a3.26,3.26,0,0,1,4.08-.46Q397,324.27,412,335.65a160,160,0,0,0-22.76,28c-10.9-10-22.76-21.9-27.53-26.71A3.5,3.5,0,0,1,361.49,332.35Z"/><path class="cls-16" d="M391.41,357.76c2.38-3.11,4.85-6.17,7.34-9.2s4.9-5.87,7.41-8.76c1.08-1.23,2.51-4.06,4.25-5.58a30.37,30.37,0,0,0,3.9,2.45,31.2,31.2,0,0,1-4.45,5.61q-3.87,4.44-7.64,9c-2.44,2.95-4.84,5.93-7.23,8.91-1.08,1.35-2.67,5.05-4.63,6.33-.9-.94-1.88-1.8-2.81-2.71A28.9,28.9,0,0,1,391.41,357.76Z"/><line class="cls-3" x1="417.55" y1="413.89" x2="426.35" y2="464.47"/><path d="M410.35,388.6h17.12a0,0,0,0,1,0,0v30.86A2.5,2.5,0,0,1,425,422H412.85a2.5,2.5,0,0,1-2.5-2.5V388.6A0,0,0,0,1,410.35,388.6Z" transform="translate(837.81 810.57) rotate(180)"/><rect x="408.43" y="412.22" width="20.95" height="11.48" rx="0.85" transform="translate(837.81 835.92) rotate(180)"/><polyline class="cls-3" points="469.55 464.44 417.55 417.31 364.25 464.44"/><circle cx="469.11" cy="465.09" r="5.42"/><circle cx="365.55" cy="465.09" r="5.42"/><circle cx="426.35" cy="464.47" r="5.42"/><path class="cls-17" d="M413.37,387c-.39,1-.75,2-1.09,3.08a15.2,15.2,0,0,0-1,5c.1,5.79,5.09,6.73,9.65,5.11a60.45,60.45,0,0,0,8.43-3.75c4.4-2.37,8.85-5.83,9.65-10.76,1.15-7.1-10.65-24.77-17.56-14.41A78.64,78.64,0,0,0,413.37,387Z"/><circle cx="418.27" cy="394.09" r="3.9"/><path class="cls-2" d="M263.39,526.71c45.3,47.91,92.92,100.59,100.77,166.06.38,3.18.55,6.78-1.56,9.2s-5.32,2.73-8.34,3C271.55,711.38,188,675.76,130.2,616.26,97.64,582.74,73,542.09,56.55,498.47,48.18,476.3,35.05,391.4,40.61,380.73,73.29,318.07,235.55,497.27,263.39,526.71Z"/><path class="cls-12" d="M437.21,890.38c.08-27.56,3.4-54.48,7.1-81.55-.76.06-1.52.09-2.27.16-19.08,1.69-38.05,4.25-57,7,2.21,28.59,5.4,57.43,7.9,84.55.32,3.45,2.53,7.36,2.87,10.81.59,5.92-4.7,7.05-.31,11.06,3.53,3.24,8.57,4.13,13.34,4.63C432.61,929.5,437.15,910.9,437.21,890.38Z"/><path class="cls-16" d="M509.53,927c.14-.11.28-.21.41-.33a10,10,0,0,0,2-12.38c-2.55-4.26-7.8-5.91-12.59-7.21-8.47-4.4-20.63-5.63-29.87-8.15-7.82-2.14-19.52-2.43-26.36-6.69-2.56-1.59-4.67-4.21-4.87-7.22-.06-.9-18.25,1.75-19.45,1.94-9.59,1.51-18.27,4.46-27.5,7-2.44.67,1,22.33,1.41,24.74.44,2.71.32,7.65,2.23,9.84s8.35.13,10.75.16c18.07.25,34.25.33,52.32,0,10.89-.2,20.69.75,31.57.37C495.26,928.88,504.74,930.57,509.53,927Z"/><path class="cls-6" d="M281.74,645.88c25.63.59,51.28-1,78.14-.77,5.38,0,11.6.53,14.71,4.92,2.12,3,2.11,7,2,10.61a502.49,502.49,0,0,1-15.38,106.61c-4.36,17-9.63,34.84-5.15,51.83,8.44,32,50.69,45.84,81.12,32.82,38.16-16.34,44.34-49.41,51.69-86.19a992.62,992.62,0,0,0,16.94-126.9c1.94-28.43,1.83-59.59-15.81-82-19.1-24.23-52.86-30.69-83.67-32.28a455.24,455.24,0,0,0-137.52,14C248,544,228.21,553.19,207,555.05c-15.59,1.37-39.95-.58-48,17.22-4,8.73,3.57,36.53,9.3,44,3.84,5,22,9.44,27.75,12.51a105.66,105.66,0,0,0,28,10.61C243.58,643.8,262.66,645.44,281.74,645.88Z"/><path class="cls-2" d="M166.41,918.39a13.18,13.18,0,0,0,1.34-.8,11.68,11.68,0,0,0,1.08-.8,10.87,10.87,0,0,0,1.68-1.61,8.59,8.59,0,0,0,1.78-3.2,20.78,20.78,0,0,0,.43-3.21l.3-3.21c.4-4.27.84-8.55,1.2-12.83q1.16-12.83,2-25.65c1.13-17.1,1.52-34.21,1.39-51.31s-.55-34.21-1.7-51.31c-.6-8.55-1.36-17.11-2.34-25.66s-2.14-17.1-3.85-25.65h24.44c-1.72,8.55-2.86,17.1-3.86,25.65s-1.74,17.11-2.33,25.66c-1.16,17.1-1.66,34.2-1.7,51.31s.25,34.21,1.38,51.31q.87,12.82,2,25.65c.36,4.28.8,8.56,1.2,12.83l.3,3.21a19.63,19.63,0,0,0,.43,3.21,8.45,8.45,0,0,0,1.78,3.2,10.77,10.77,0,0,0,1.67,1.61c.34.26.66.53,1.08.8a14.62,14.62,0,0,0,1.35.8Z"/><path class="cls-12" d="M207.73,240.18c1.29-7.26,1.69-14.72,3.36-21.92,7.38-31.86,54.34-69.11,80.29-32.54,5.84,8.22,7.91,18.33,8.62,28.22.73,10.31,1.34,20.35-.59,30.57a6.62,6.62,0,0,1-.9,2.58,6.35,6.35,0,0,1-3.42,2,46.55,46.55,0,0,1-9.65,2c1.19-.11,4.06,1.91,5.4,2.25,1.82.47,3.8.67,5.65,1.08.35,1.06.67,2.31.06,3.24a5.28,5.28,0,0,1-1.2,1.11c-3.82,3.09-3.13,8.67-5.18,12.72s-6.43,5.72-10.7,6.39c-8.59,1.34-20-1.45-26.08,6.48a17.59,17.59,0,0,0-2.57,6q-8.79,30.56-19.75,60.42c-4.41,12-10.91,9.72-20.79,6.78-8.75-2.6-17.65-5.4-25.45-10.27-7.37-4.6-13.5-12-14.37-20.65-.85-8.42,3.27-16.45,7.27-23.91q10.41-19.41,20.83-38.82c2.74-5.12,5.5-10.28,7.27-15.81A63.52,63.52,0,0,0,207.73,240.18Z"/><path class="cls-10" d="M229.47,523.53c3.18-8.1,6.51-16.08,10-24.11,8-18.19,18.28-37.44,17.88-57.86-.26-13.84-11.24-19.65-15.19-31.49C237.11,394.83,231.55,379.69,228,364c-1.82-8.06-3.2-16.35-4.88-24.53-2.79-13.6,20.63-11.86,12.72-23.11-5.32-7.55-16.33-13-24-17.75-10.09-6.33-20.35-15-33-12.15-6.41,1.43-12.2,4.85-17.6,8.58-34.25,23.62-56.58,60.76-74.63,98.25-9.85,20.47-18.8,41.52-24.17,63.6-2.76,11.35-4.56,23.26-2.11,34.68,2.07,9.69,7.07,18.47,12.34,26.86,10.84,17.26,23.76,33.19,35.07,49.91,10.13,15,27.16,27,44.39,32.17,7.64,2.28,19.86,3.67,27.91,3.68,11.14,0,15.62-6.1,22.92-14.1,5.66-7.41,12.2-14,17.58-21.71s9.81-16.12,14.72-24.2a1.83,1.83,0,0,0,.36-1.64c-.28-.57-1-.67-1.68-.69l-5.27-.16a3.7,3.7,0,0,0-3.95-5.9C226.32,531.65,227.88,527.58,229.47,523.53Z"/><path class="cls-12" d="M533.82,887.79c-.46-27.55,2.34-54.53,5.51-81.67-.76.07-1.52.12-2.27.2-19,2.07-38,5-56.85,8.07,2.76,28.55,6.52,57.32,9.55,84.38.38,3.45,2.67,7.31,3.08,10.76.7,5.91-4.57,7.14-.1,11.06,3.59,3.17,8.65,4,13.43,4.37C530,927,534.16,908.31,533.82,887.79Z"/><path class="cls-16" d="M606.84,923c.14-.1.27-.22.4-.33A10.06,10.06,0,0,0,609,910.26c-2.64-4.21-7.92-5.75-12.74-7-8.55-4.23-20.73-5.22-30-7.56-7.86-2-19.57-2.05-26.48-6.17-2.59-1.55-4.76-4.12-5-7.13-.09-1-41.68,4.67-45.94,10.56-6.73,9.29-1.69,24.6.2,35.19,21.77,0,43.53-.44,65.28-1.26,10.88-.41,21.76-.86,32.64-1.46C592.61,925.15,602.12,926.66,606.84,923Z"/><path class="cls-11" d="M512,854.5a68.62,68.62,0,0,0,26.37-16.61c10-10.28,16.87-24,17.56-38.3.47-9.71-1.83-19.33-4.3-28.73-9-34.11-21.41-66.51-34.14-99.31-4.62-11.93-4.82-24.18-9.22-36.16a220.3,220.3,0,0,0-22.51-45.28c-10.46-15.85-24.61-30.28-42.73-36-10.35-3.26-21.37-3.49-32.22-3.38-75.93.78-150.73,17.15-224.9,33.44-13.54,3-28.52,4.35-34.75,17.64-10.43,22.3-8.06,60.55,7.37,80,9,11.35,21.7,19.37,35.15,24.77,30,12,63.48,11.62,95.52,7.54,36.95-4.7,73.15-14,109.24-23.26,14.53,18.32,12.39,38.65,18.27,60,6.67,24.26,13.69,48.44,21.58,72.34,7.81,23.65,18,33.73,43.85,35.38A75.86,75.86,0,0,0,512,854.5Z"/><path class="cls-2" d="M296.47,165.65c-1.17-.43-2.36-.8-3.55-1.16q-12.32-3.75-24.81-6.86c-14.32-3.56-23.27,8-37.25,7.7-16-.38-31,13.62-31.64,29.61-30.9,3.84-51.41,28.06-64,54.92-2,4.2-3.6,8.9-2.47,13.4.95,3.74,3.67,6.76,6.49,9.39,21.47,20.1,51.81,26.88,80.6,32.89,6.68,1.39,13.45,2.79,20.26,2.41,2.17-.12,4.56-.55,5.9-2.26s1.14-4.36.84-6.64c-3-22.58-1.51-46.34,8.52-66.79,7.44-15.17,19.94-27.84,35.48-34.66,6.32-2.77,13.75-3.14,16.69-10.1,2.71-6.42-.63-15.74-6.17-19.48A22.1,22.1,0,0,0,296.47,165.65Z"/><path class="cls-16" d="M284.7,243.41a21.75,21.75,0,1,1-14.62-27.06A21.76,21.76,0,0,1,284.7,243.41Z"/><path class="cls-16" d="M267.07,188.42c-.41-2-4.91-22.49-8.77-32.09a41.94,41.94,0,0,1-8.52,4,31.15,31.15,0,0,1-9.64,2.11c6.29,9.1,9.87,19.92,11.56,30.87a140.79,140.79,0,0,1,1.42,25.95c-.14,4.57-3.53,11.12-1.1,15.24,4.42,7.52,16.25,3,17.09-4.74A130.09,130.09,0,0,0,267.07,188.42Z"/><path class="cls-2" d="M273.55,240.08a10.11,10.11,0,1,1-6.8-12.58A10.1,10.1,0,0,1,273.55,240.08Z"/><path class="cls-19" d="M222.75,436.58c5.17,6.89,11.63,13.37,19.38,17.86a83.53,83.53,0,0,0,10.65,5.05c1-5,1.9-9.95,2.7-14.95a104.7,104.7,0,0,1-41.56-21.68A141.71,141.71,0,0,0,222.75,436.58Z"/><path class="cls-10" d="M277.28,454.76c16.39,6.76,28.84,12.63,47,12.33l74.54-1.21c7.61-.13,18,1.27,24.77-2.7,12.28-7.21,10.21-28.63,3.79-39-6.84-11-20.66-15-33.24-18.16-16.79-4.18-33.27-8.48-49.52-14.45a183.31,183.31,0,0,1-32.53-15.5c-32.95-20.07-58.35-48.85-92.33-67.54a187.18,187.18,0,0,1-16.8,17c-1.06,5.68-3,11.27-4.23,16.93-6.23,27.41,1,56.79,20.66,77a119.3,119.3,0,0,0,23.75,18.56C253.93,444.64,265.6,449.94,277.28,454.76Z"/><path class="cls-16" d="M358.94,693.85c-36.08-16-70.8-34.92-102.67-58.28-17.33-12.69-33.31-26.81-49.1-41.34q-23.46-21.59-46.08-44C108.17,497.53,69.18,449.92,40.61,380.73c-42.7,80.95-37,265.88,64.56,332.14,39.37,25.68,88.57,32.86,134.7,29.1a288.15,288.15,0,0,0,73-15.72c7.59-2.7,38.44-12.58,56.47-27.9C365.85,696.86,362.39,695.37,358.94,693.85Z"/><path class="cls-5" d="M396.29,694.59a114.06,114.06,0,0,1,1.52-33.14"/><path class="cls-5" d="M227.4,535.05c-1.94,4.07-5.84,6.81-9.71,9.11a103.94,103.94,0,0,1-17.39,8.24"/><path class="cls-5" d="M215,552.81A57.76,57.76,0,0,1,190.49,561"/><path class="cls-20" d="M365.59,219.16,391.81,156a2.63,2.63,0,0,1,4.91.14l30.11,86.08a2.63,2.63,0,0,0,5-.06l19.63-60.69a2.63,2.63,0,0,1,4.91-.26l16.81,38.15a2.63,2.63,0,0,0,4.92-.29l21.3-69.88a2.63,2.63,0,0,1,5.08.18l26.24,112.76a2.63,2.63,0,0,0,5.13,0l16.57-73.91a2.63,2.63,0,0,1,5.11-.11l14.05,52.08a2.63,2.63,0,0,0,5.08,0l26.55-98.67a2.63,2.63,0,0,1,5-.34l40.6,96.26"/><path class="cls-5" d="M488.62,927.88c-3.39-9.44-2.87-21.15-2.77-31.17"/><path class="cls-18" d="M1029.58,465.61H277.68v12.92h751.9l1.19,0V465.63Z"/><line class="cls-21" x1="19.97" y1="927.88" x2="1104.52" y2="927.88"/><path class="cls-21" d="M356.91,939.56q139.71,1.5,279.43.41"/></svg>